<svg viewBox="0 0 1178 102" xmlns="http://www.w3.org/2000/svg" xmlns:xlink="http://www.w3.org/1999/xlink" stroke-linejoin="round" stroke-miterlimit="2" fill-rule="evenodd" clip-rule="evenodd" xml:space="preserve" overflow="hidden"><g transform="translate(-4772.51 -956.439)"><g transform="scale(5.55556 5.55556)"><g transform="translate(1059.69 190.104)"><path d="M0-17.945-9.523-4.169C-10.777-2.356-12.81-0.611-15.267-0.424L-15.267 0-4.677 0C-1.864 0 0.187-1.83 1.576-3.847L11.353-17.945 0-17.945Z" fill="#FF0000" fill-rule="nonzero"/></g></g><g transform="scale(5.55556 5.55556)"><g transform="translate(963.351 180.702)"><path d="M0 2.372 5.216 2.372 2.506-2.643 0 2.372ZM9.198 9.401 7.148 5.794-1.796 5.794-3.642 9.401-8.098 9.401 0.812-7.013 4.861-7.013 14.941 9.401 9.198 9.401ZM-95.983 2.372-90.631 2.372-93.409-2.643-95.983 2.372ZM-86.53 9.401-88.632 5.794-97.813 5.794-99.727 9.401-104.3 9.401-95.154-7.013-90.986-7.013-80.619 9.401-86.53 9.401ZM-59.85 0.525C-57.953 0.525-57.038-0.441-57.038-1.525-57.038-2.609-57.851-3.506-59.85-3.506L-64.949-3.506-64.949 0.525-59.85 0.525ZM-56.021 3.235-49.398 9.401-54.513 9.401C-55.649 9.401-56.395 9.046-56.987 8.47L-61.494 4.099C-61.578 4.015-61.714 3.964-61.883 3.964L-64.949 3.964-64.949 9.401-69.744 9.401-69.744-7.031-59.358-7.031C-53.972-7.031-51.702-4.608-51.702-1.931-51.702 1.186-54.48 2.677-56.021 3.235M-18.702 0.525C-16.805 0.525-15.89-0.441-15.89-1.525-15.89-2.609-16.704-3.506-18.702-3.506L-23.801-3.506-23.801 0.525-18.702 0.525ZM-14.874 3.235-8.25 9.401-13.367 9.401C-14.501 9.401-15.247 9.046-15.839 8.47L-20.346 4.099C-20.431 4.015-20.566 3.964-20.735 3.964L-23.801 3.964-23.801 9.401-28.596 9.401-28.596-7.031-18.212-7.031C-12.825-7.031-10.554-4.608-10.554-1.931-10.554 1.186-13.332 2.677-14.874 3.235M59.493 9.401 59.493-7.031 76.128-7.031 76.128-3.506 64.287-3.506 64.287-0.661 75.942-0.661 75.942 2.863 64.287 2.863 64.287 5.878 76.077 5.878 76.077 9.401 59.493 9.401ZM-47.552 9.401-47.552-7.031-31.526-7.031-31.526-3.506-42.758-3.506-42.758 0.576-31.781 0.576-31.781 4.099-42.758 4.099-42.758 9.401-47.552 9.401ZM56.596-1.728C54.429-2.795 51.988-3.659 48.753-3.659 44.891-3.659 42.011-1.66 42.011 1.119 42.011 3.964 44.942 5.98 48.719 5.98 51.836 5.98 54.309 5.184 56.748 3.777L56.748 7.843C54.597 8.911 51.735 9.707 48.516 9.707 41.944 9.707 36.777 6.353 36.777 1.119 36.777-4.032 42.044-7.335 48.499-7.335 51.548-7.335 54.309-6.759 56.596-5.828L56.596-1.728ZM31.542 9.401 20.023-0.356 20.023 9.401 15.974 9.401 15.974-7.031 19.413-7.031 30.779 2.575 30.779-7.031 34.828-7.031 34.828 9.401 31.542 9.401ZM-79.027-7.031-74.232-7.031-74.232 9.401-79.027 9.401-79.027-7.031Z" fill="#FFFFFF" fill-rule="nonzero"/></g></g></g></svg>