<svg viewBox="0 0 2085 379" xmlns="http://www.w3.org/2000/svg" xmlns:xlink="http://www.w3.org/1999/xlink" stroke-linejoin="round" stroke-miterlimit="2" fill-rule="evenodd" clip-rule="evenodd" xml:space="preserve" overflow="hidden"><g transform="translate(-4291.11 -482.602)"><g transform="scale(5.55556 5.55556)"><g transform="translate(907.096 144.943)"><path d="M0-43.046-17.98-22.232-37.231-43.046-48.045-43.046-48.045 0-37.935 0-37.935-27.343-18.651-5.166-0.076-27.494-0.076 0 12.012 0 12.012-43.046 0-43.046Z" fill="#FFFFFF" fill-rule="nonzero"/></g></g><g transform="scale(5.55556 5.55556)"><g transform="translate(971.862 145.734)"><path d="M0-43.837 0-21.968C0-14.181-5.584-9.714-15.32-9.714-22.308-9.714-30.639-11.84-30.639-21.968L-30.639-43.837-42.53-43.837-42.53-21.77C-42.53-7.731-32.866 0-15.32 0 2.227 0 11.89-7.731 11.89-21.77L11.89-43.837 0-43.837Z" fill="#FFFFFF" fill-rule="nonzero"/></g></g><g transform="scale(5.55556 5.55556)"><g transform="translate(1019.46 128.417)"><path d="M0-9.994C-10.79-11.982-14.521-12.784-14.521-15.036-14.521-16.325-12.711-18.487-0.586-18.487 6.035-18.487 13.925-17.141 19.513-15.057L20.195-14.803 20.195-24.11 19.841-24.222C13.879-26.098 5.745-27.311-0.883-27.311-17.798-27.311-27.499-22.584-27.499-14.343-27.499-7.394-21.173-3.118-7.593-0.888 5.243 1.266 9.393 2.179 9.393 4.745 9.393 7.512 2.259 8.493-3.85 8.493-10.796 8.493-18.793 7.099-25.24 4.765L-25.917 4.519-25.917 14.106-25.577 14.224C-20.231 16.074-11.5 17.317-3.85 17.317 12.879 17.317 22.865 12.285 22.865 3.855 22.865-5.063 14.228-7.326 0-9.994" fill="#FFFFFF" fill-rule="nonzero"/></g></g><g transform="scale(5.55556 5.55556)"><g transform="matrix(-1 0 0 1 1065.45 98.5565)"><path d="M-19.401-11.495-8.351-11.495 0 0-9.532 0-19.401-11.495Z" fill="#FFFFFF" fill-rule="nonzero"/></g></g><g transform="scale(5.55556 5.55556)"><g transform="translate(1050.01 101.898)"><path d="M0 42.915 43.726 42.915 43.726 34.012 12.344 34.012 12.344 25.565 43.331 25.565 43.331 16.663 12.344 16.663 12.344 8.902 43.826 8.902 43.826 0 0 0 0 42.915Z" fill="#FFFFFF" fill-rule="nonzero"/></g></g><g transform="scale(5.55556 5.55556)"><g transform="translate(1103.77 101.898)"><path d="M0 42.915 43.726 42.915 43.726 34.012 12.344 34.012 12.344 25.565 43.331 25.565 43.331 16.663 12.344 16.663 12.344 8.902 43.826 8.902 43.826 0 0 0 0 42.915Z" fill="#FFFFFF" fill-rule="nonzero"/></g></g><g transform="scale(5.55556 5.55556)"><g transform="translate(806.435 89.0203)"><path d="M0 63.766C-17.581 63.766-31.883 49.463-31.883 31.884-31.883 14.303-17.581-0.001 0-0.001 17.581-0.001 31.883 14.303 31.883 31.884 31.883 49.463 17.581 63.766 0 63.766M0-2.152C-18.767-2.152-34.035 13.116-34.035 31.884-34.035 50.649-18.767 65.918 0 65.918 18.767 65.918 34.035 50.649 34.035 31.884 34.035 13.116 18.767-2.152 0-2.152" fill="#FFFFFF" fill-rule="nonzero"/></g></g><g transform="scale(5.55556 5.55556)"><g transform="translate(803.946 135.745)"><path d="M0-1.669C0-3.114-0.478-4.466-1.121-5.616-1.487-5.676-2.031-5.639-2.775-5.061-3.384-4.588-4.482-2.435-5.149-2.01-5.482-1.798-6.504-1.665-6.673-1.219-6.789-0.91-6.514-0.719-6.344-0.585-6.089-0.381-5.799-0.151-5.583 0.142-5.373 0.429-5.264 0.847-5.138 1.331-4.73 2.893-4.268 4.007-2.554 3.96-0.957 2.622 0 0.599 0-1.669" fill="#FFFFFF" fill-rule="nonzero"/></g></g><g transform="scale(5.55556 5.55556)"><g transform="translate(794.663 127.319)"><path d="M0 7.12C-0.153 6.385 0.202 5.65 0.467 5.103L0.802 4.494C1.043 3.802 0.812 3.404 0.31 2.879-0.107 2.44-0.498 1.864-0.65 0.996-0.71 0.656-0.704 0.176-0.81 0.069-0.889-0.01-1.086 0.052-1.266 0.148-3.425 1.304-3.03 4.278-2.751 4.922-1.797 7.13 0 7.12 0 7.12" fill="#FFFFFF" fill-rule="nonzero"/></g></g><g transform="scale(5.55556 5.55556)"><g transform="translate(797.321 126.449)"><path d="M0 6.499C0.988 6.499 1.557 5.506 1.89 5.019 2.299 4.421 2.723 3.804 3.173 3.427 3.787 2.912 4.404 2.739 4.559 2.611 4.708 2.49 4.545 2.209 4.351 2.015 3.099 0.765 1.429 0-0.408 0-1.048 0-1.688 0.168-2.23 0.372-2.476 1.878-1.998 2.457-1.504 3.116-1.029 3.749-0.585 4.098-0.79 5.445-0.889 6.092-0.493 6.499 0 6.499" fill="#FFFFFF" fill-rule="nonzero"/></g></g><g transform="scale(5.55556 5.55556)"><g transform="translate(794.171 136.007)"><path d="M0 5.248C0.826 5.543 1.557 5.697 2.535 5.697 3.806 5.697 4.983 5.308 5.956 4.511 4.092 4.011 3.891 2.387 3.617 1.336 3.529 1.004 3.381 0.534 3.008 0.237 2.428-0.223 0.774-0.449 0.827-0.125 0.984 0.851 0.507 1.886 0.079 2.653-0.538 3.761-0.297 4.751 0 5.248" fill="#FFFFFF" fill-rule="nonzero"/></g></g><g transform="scale(5.55556 5.55556)"><g transform="translate(793.706 126.431)"><path d="M0 11.384C0.137 11.151 0.3 10.549 0.3 10.253 0.3 7.885-4.21 7.678-4.288 1.544-4.317-0.798-3.265-1.759-3.265-2.197-3.265-2.519-3.528-2.724-4.375-2.724-5.924-2.724-7.795-1.496-8.379 1.222-13.465 1.046-12.704 4.816-12.704 4.816-12.704 4.816-10.498 4.377-9.119 5.21-5.625 7.319-3.625 14.108-1.341 14.108-0.659 14.108-1.297 11.736 0 11.384" fill="#FFFFFF" fill-rule="nonzero"/></g></g><g transform="scale(5.55556 5.55556)"><g transform="translate(805.354 147.134)"><path d="M0-14.441C0.274-12.922-1.119-9.103-0.124-6.984 0.138-6.426 0.481-6.194 0.861-5.918 1.389-5.535 1.987-5.101 2.328-3.905 2.445-3.496 2.506-2.984 2.571-2.441 2.709-1.282 2.785-0.072 3.579 0.524 3.787 0.68 4.188 0.875 4.524 0.92 7.91 0.036 9.08-1.526 9.82-2.266L0.942-15.361 0-14.441Z" fill="#FFFFFF" fill-rule="nonzero"/></g></g><g transform="scale(5.55556 5.55556)"><g transform="translate(806.758 144.12)"><path d="M0-0.614C-0.242-1.46-0.698-1.713-1.162-2.049-1.592-2.362-2.157-2.687-2.549-3.47-2.787-3.947-2.81-4.503-2.856-5.229-4.065-4.042-5.117-2.724-6.6-1.994-6.708-1.736-6.729-1.515-6.725-1.341-6.691 0.057-4.724 0.638-5.725 3.955-4.673 4.413-3.536 4.615-2.131 4.615-0.807 4.615 0.347 4.521 1.36 4.363 0.451 3.454 0.268 1.939 0.12 0.698 0.061 0.199 0.093-0.286 0-0.614" fill="#FFFFFF" fill-rule="nonzero"/></g></g><g transform="scale(5.55556 5.55556)"><g transform="translate(799.025 147.068)"><path d="M0-3.978C-0.048-4.134-0.063-4.297-0.057-4.461-1.69-3.94-3.462-3.916-5.158-4.509L-5.825-4.528C-5.43-3.707-3.272-0.941 0.818 0.55 1.757-1.042 1.278-1.508 0.691-2.526 0.436-2.966 0.172-3.422 0-3.978" fill="#FFFFFF" fill-rule="nonzero"/></g></g><g transform="scale(5.55556 5.55556)"><g transform="translate(826.004 138.559)"><path d="M0-22.925C0.389-22.925 0.705-22.61 0.705-22.221 0.705-21.831 0.389-21.515 0-21.515-0.389-21.515-0.705-21.831-0.705-22.221-0.705-22.61-0.389-22.925 0-22.925M-6.691-2.199-6.897-2.749-2.402-9.897C-2.402-9.897-5.004-13.907-5.004-16.894-5.004-17.298-4.862-17.667-4.545-17.668-3.844-16.226-2.195-15.07-1.839-13.624L0.657-13.73 1.922-26.386-0.574-28.988-1.242-27.406C-5.613-27.08-9.877-25.446-13.233-21.851L-13.233-4.665C-14.803-5.287-17.626-7.416-18.433-8.737-18.82-8.456-19.101-7.999-18.89-7.613-15.937-3.289-10.066 5.36-10.066 5.36L-9.75 5.36C-7.974 3.827-6.238 2.882-4.196 2.09-2.331-1.249 0.096-5.776 1.465-7.858 1.754-5.209 1.676 0.385 1.676 0.385 1.692 0.784 0.159 0.7-0.064 0.922-0.287 1.144-0.163 2.039-0.358 2.234-0.567 2.443-2.261 2.442-2.261 2.442-2.577 3.637-2.156 6.063-2.156 6.063L3.364 1.071 3.927-10.777 0.902-12.253C0.902-12.253-4.06-5.448-6.691-2.199" fill="#FFFFFF" fill-rule="nonzero"/></g></g><g transform="scale(5.55556 5.55556)"><g transform="matrix(0 -1 -1 0 783.476 91.8621)"><path d="M-4.784-18.598-0.842-18.598C-2.575-7.06-11.294 2.215-22.54 4.784L-22.54 0.787C-13.445-1.648-6.428-9.208-4.784-18.598" fill="#FFFFFF" fill-rule="nonzero"/></g></g><g transform="scale(5.55556 5.55556)"><g transform="matrix(-0.789416 -0.613859 -0.613859 0.789416 779.818 109.094)"><path d="M-10.795-22.373C-4.445-15.217-3.184-4.764-7.675 3.703L-10.795 1.277C-7.54-5.432-8.506-13.492-13.229-19.243L-10.795-22.373Z" fill="#FFFFFF" fill-rule="nonzero"/></g></g><g transform="scale(5.55556 5.55556)"><g transform="matrix(0 -1 -1 0 791.174 104.478)"><path d="M-2.59-10.9 1.053-10.9C-0.72-3.651-6.94 1.869-14.543 2.59L-14.543-0.947C-8.888-1.618-4.234-5.602-2.59-10.9" fill="#FFFFFF" fill-rule="nonzero"/></g></g><g transform="scale(5.55556 5.55556)"><g transform="translate(811.571 92.3878)"><path d="M0 39.314 0.078 39.314 0.078 0.504C-1.641 0.178-3.411 0-5.223 0-6.222 0-7.21 0.053-8.183 0.155L-8.183 22.812C-8.182 29.545-4.971 35.524 0 39.314" fill="#FFFFFF" fill-rule="nonzero"/></g></g><g transform="scale(5.55556 5.55556)"><g transform="matrix(-0.311088 -0.950381 -0.950381 0.311088 817.142 108.132)"><path d="M-3.521 0.389 0.51 0.389C0.371 1.233 0.181 1.999-0.014 2.65L-3.826 2.317C-3.686 1.646-3.585 1.001-3.521 0.389" fill="#FFFFFF" fill-rule="nonzero"/></g></g><g transform="scale(5.55556 5.55556)"><g transform="matrix(-0.0244873 -0.9997 -0.9997 0.0244873 821.241 107.025)"><path d="M-3.452 0.119 0.754 0.119C0.612 1.287 0.308 2.383-0.074 3.373L-4.111 2.496C-3.805 1.624-3.595 0.822-3.452 0.119" fill="#FFFFFF" fill-rule="nonzero"/></g></g><g transform="scale(5.55556 5.55556)"><g transform="translate(829.051 108.999)"><path d="M0 2.699 0 2.7 1.734 2.11C1.347 1.367 0.846 0.65 0.242-0.001L-1.199 1.464 0 2.699Z" fill="#FFFFFF" fill-rule="nonzero"/></g></g><g transform="scale(5.55556 5.55556)"><g transform="translate(827.021 106.708)"><path d="M0 2.898 1.145 1.262C0.475 0.746-0.283 0.314-1.122 0L-1.489 1.369-1.485 1.369 0 2.898Z" fill="#FFFFFF" fill-rule="nonzero"/></g></g><g transform="scale(5.55556 5.55556)"><g transform="matrix(0.98736 -0.158491 -0.158491 -0.98736 829.142 115.422)"><path d="M-0.195 0.243 2.688 0.243C2.8 0.942 2.792 1.714 2.669 2.51L0.26 2.498-0.195 0.243Z" fill="#FFFFFF" fill-rule="nonzero"/></g></g><g transform="scale(5.55556 5.55556)"><g transform="matrix(-0.987088 -0.160181 -0.160181 0.987088 813.886 114.953)"><path d="M1.104-5.112C1.569-4.592 1.819-4.249 1.819-4.249L1.104 0.157C0.434-0.674-0.258-1.399-0.951-2.036L1.104-5.112Z" fill="#FFFFFF" fill-rule="nonzero"/></g></g><g transform="scale(5.55556 5.55556)"><g transform="translate(824.059 106.306)"><path d="M0 3.81 0.002 3.791 0.37-0.006C-0.158-0.103-0.708-0.156-1.284-0.156-1.426-0.156-1.567-0.151-1.706-0.147L-1.78 3.966C-0.673 3.791 0 3.81 0 3.81" fill="#FFFFFF" fill-rule="nonzero"/></g></g><g transform="scale(5.55556 5.55556)"><g transform="translate(802.058 117.723)"><path d="M0-5.193 0-9.273C-4.5-7.753-7.89-3.77-8.617 0.998-8.772 2.015-8.823 2.6-8.893 3.403L-5.729 3.403C-5.629-0.425-3.303-3.706 0-5.193Z" fill="#FFFFFF" fill-rule="nonzero"/></g></g><g transform="scale(5.55556 5.55556)"><g transform="translate(802.058 119.552)"><path d="M0-1.533 0-5.679C-2.69-4.25-4.573-1.421-4.573 1.831-4.573 2.259-4.523 3.058-4.475 3.449L-1.632 3.449C-1.682 3.149-1.714 2.843-1.714 2.527-1.714 0.938-1.055-0.5 0-1.533Z" fill="#FFFFFF" fill-rule="nonzero"/></g></g><g transform="scale(5.55556 5.55556)"><g transform="translate(802.047 119.701)"><path d="M0 5.351 2.547 5.351C1.571 3.766 0.941 1.949 0.758 0-0.042 0.83-0.537 1.953-0.537 3.194-0.537 3.973-0.341 4.706 0 5.351" fill="#FFFFFF" fill-rule="nonzero"/></g></g></g></svg>