<svg viewBox="0 0 1419 248" xmlns="http://www.w3.org/2000/svg" xmlns:xlink="http://www.w3.org/1999/xlink" stroke-linejoin="round" stroke-miterlimit="2" fill-rule="evenodd" clip-rule="evenodd" xml:space="preserve" overflow="hidden"><g transform="translate(-4624.31 -5327.06)"><g transform="scale(5.55556 5.55556)"><g transform="translate(864.221 989.843)"><path d="M0-7.604-2.236-7.604-2.236 0 0.546 0C3.653 0 5.888-0.481 5.888-3.821 5.888-7.279 2.782-7.604 0-7.604" fill="#FFFFFF" fill-rule="nonzero"/></g></g><g transform="scale(5.55556 5.55556)"><g transform="translate(868.796 976.26)"><path d="M0-0.312C0-2.951-2.236-3.432-4.315-3.432L-6.811-3.432-6.811 3.12-5.056 3.12C-2.171 3.12 0 2.639 0-0.312" fill="#FFFFFF" fill-rule="nonzero"/></g></g><g transform="scale(5.55556 5.55556)"><g transform="matrix(1 0 0 1 0 882.646)"><path d="M832.375 120.753 925.04 120.753 925.04 76.601 832.375 76.601 832.375 120.753ZM849.338 100.048C849.468 100.139 849.494 100.308 849.494 100.425 849.585 102.011 849.845 105.741 851.443 110.72L848.246 110.72C848.025 110.72 847.895 110.629 847.83 110.408 847.44 109.264 846.01 105 845.815 99.632L844.827 98.683 845.815 97.734C846.01 92.366 847.453 88.103 847.83 86.959 847.895 86.738 848.025 86.647 848.246 86.647L851.443 86.647C849.845 91.638 849.585 95.356 849.494 96.941 849.494 97.071 849.468 97.227 849.338 97.318L847.765 98.683 849.338 100.048ZM864.949 110.096 858.514 110.096 858.514 87.258 865.274 87.258C869.147 87.258 872.345 88.973 872.345 92.795 872.345 95.434 871.097 97.214 868.51 97.851 871.708 98.332 873.787 100.49 873.787 103.389 873.787 109.173 869.212 110.096 864.949 110.096M892.388 110.096 888.931 110.096 888.931 99.918C888.931 97.565 888.645 96.578 888.034 95.876 887.423 95.239 886.565 94.823 885.382 94.823 884.004 94.823 882.821 95.421 882.054 96.578 881.417 97.5 881.028 98.709 881.028 101.439L881.028 110.083 877.57 110.083 877.57 97.487C877.57 95.733 877.505 93.198 876.959 92.119L880.417 92.132C880.677 92.704 880.807 93.536 880.807 94.641 881.898 92.795 883.939 91.781 886.474 91.781 888.424 91.781 889.932 92.444 890.919 93.562 891.881 94.641 892.388 96.136 892.388 99.19L892.388 110.096ZM909.923 90.273 900.317 90.273 900.317 96.889 909.091 96.889 909.091 99.944 900.447 99.944 900.447 110.083 896.795 110.083 896.795 87.258 909.923 87.258 909.923 90.273Z" fill="#FFFFFF" fill-rule="nonzero"/></g></g><g transform="scale(5.55556 5.55556)"><g transform="translate(969.504 979.224)"><path d="M0 1.651C-0.142 2.541-1.702 2.004-1.887 2.99L-2.007 18.429C-2.33 19.132-3.821 18.344-4.449 18.114-6.104 17.508-9.341 15.839-10.967 15.807-11.535 15.795-13.647 17.427-14.456 17.794-21.873 21.153-30.607 15.53-33.076 8.333-37.541-4.681-28.787-19.502-14.115-17.975-12.532-17.811-9.951-16.082-9.226-16.118-8.037-16.175-5.09-18.183-4.195-18.007L-2.048-4.322-2.531-4.419C-4.562-9.171-8.043-16.214-13.664-17.325-19.891-18.557-21.87-11.472-22.499-6.735-23.327-0.505-23.244 10.605-18.588 15.407-16.154 17.917-12.916 17.825-11.969 14.146L-11.991 2.851C-12.173 2.313-14.718 2.286-15.28 2.047-15.542 1.924-15.275 1.651-15.198 1.651L0 1.651Z" fill="#FFFFFF" fill-rule="nonzero"/></g></g><g transform="scale(5.55556 5.55556)"><g transform="translate(1075.97 995.006)"><path d="M0-18.61C-0.199-20.241-1.953-21.208-3.058-19.933-3.804-19.072-3.286-15.874-3.77-14.356-5.054-10.33-12.966-10.412-11.296-15.894-9.469-21.888 5.664-22.985 8.533-17.067 10.398-13.22 8.69-5.103 9.302-0.703 9.41 0.135 10.353 0.472 10.938-0.152L11.654-1.4C11.714 1.048 8.843 2.607 6.674 2.824 4.488 3.043 0.704 3.016 0.471 0.171-3.144 4.375-12.924 3.895-12.924-2.893-12.925-8.996-4.485-9.737 0-9.102L0-18.61ZM-0.008-8.622C-4.314-10.24-4.583-2.205-2.842-0.372-2.053 0.458-0.558 0.684-0.039-0.41L-0.008-8.622Z" fill="#FFFFFF" fill-rule="nonzero"/></g></g><g transform="scale(5.55556 5.55556)"><g transform="translate(983.994 996.807)"><path d="M0-20.726C-0.235-22.139-2.014-22.838-2.994-21.67-3.931-20.554-3.172-17.869-3.703-16.248-4.884-12.639-11.557-11.902-11.436-16.613-11.351-19.947-6.819-22.029-3.97-22.488 1.209-23.32 8.772-22.801 9.298-16.174 9.646-11.782 8.998-6.965 9.325-2.528 10.016-0.886 11.235-1.746 11.497-3.126L11.813-2.963C11.025 0.57 7.178 1.328 4.019 1.039 2.332 0.884 0.967 0.193 0.395-1.473-3.217 2.594-12.915 1.928-12.914-4.695-12.913-10.771-4.454-11.526 0-10.903L0-20.726ZM0-10.432C-3.804-11.676-4.183-6.092-3.553-3.664-3.104-1.936-1.615-0.754 0-2.023L0-10.432Z" fill="#FFFFFF" fill-rule="nonzero"/></g></g><g transform="scale(5.55556 5.55556)"><g transform="translate(1024.63 958.803)"><path d="M0 38.574-12.836 38.574C-12.866 38.574-13.117 38.32-13.072 38.262L-11.445 37.801-11.182 37.084-11.175 3.911-11.33 3.438C-11.692 3.186-12.569 3.626-12.911 3.133L-2.397 0.098C-2.231 0-1.89 0.191-1.89 0.304L-1.89 37.395C-1.89 37.955 0.068 37.868 0 38.574" fill="#FFFFFF" fill-rule="nonzero"/></g></g><g transform="scale(5.55556 5.55556)"><g transform="translate(1008.09 960.447)"><path d="M0 35.28C0.16 36.357 0.954 36.368 1.891 36.46L1.89 36.93-11.025 36.93C-10.998 36.195-9.732 36.503-9.377 35.982-9.193 35.712-9.153 35.007-9.128 34.658L-9.127 2.425C-9.182 1.541-9.858 1.766-10.475 1.725-10.71 1.709-10.932 1.847-10.866 1.492L-0.511-1.549C-0.344-1.65 0-1.451 0-1.34L0 35.28Z" fill="#FFFFFF" fill-rule="nonzero"/></g></g><g transform="scale(5.55556 5.55556)"><g transform="translate(1060.17 995.502)"><path d="M0-18.973C3.151-15.716 1.958-9.733-3.45-10.579-7.685-11.241-6.315-16.125-6.787-18.879-7.176-21.147-9.261-21.515-10.368-19.45-12.222-15.989-11.819-7.867-8.905-4.978-6.25-2.345 0.141-2.521 1.002-6.769L1.4-6.613C0.533-0.173-4.657 2.854-10.888 2.344-23.577 1.305-23.284-18.468-10.944-21.125-7.682-21.827-2.45-21.506 0-18.973" fill="#FFFFFF" fill-rule="nonzero"/></g></g><g transform="scale(5.55556 5.55556)"><g transform="translate(1027.78 993.553)"><path d="M0-15.751-0.155-16.225-1.476-16.287-1.74-16.763 9.023-19.575C9.108-19.549 9.285-19.41 9.285-19.358L9.285 2.645C9.285 3.204 11.242 3.118 11.174 3.824L-1.661 3.824C-1.691 3.824-1.942 3.57-1.897 3.511L-0.27 3.05C-0.06 2.919-0.032 2.56-0.008 2.333L0-15.751Z" fill="#FFFFFF" fill-rule="nonzero"/></g></g><g transform="scale(5.55556 5.55556)"><g transform="translate(1031.36 973.393)"><path d="M0-11.023C7.111-11.993 8.622-2.711 2.565-1.077-5.021 0.97-6.732-10.104 0-11.023" fill="#FFFFFF" fill-rule="nonzero"/></g></g></g></svg>